<?xml version="1.0" standalone="no"?>
<!DOCTYPE svg PUBLIC "-//W3C//DTD SVG 20010904//EN"
 "http://www.w3.org/TR/2001/REC-SVG-20010904/DTD/svg10.dtd">
<svg version="1.0" xmlns="http://www.w3.org/2000/svg"
 width="1024.000000pt" height="1024.000000pt" viewBox="0 0 1024.000000 1024.000000"
 preserveAspectRatio="xMidYMid meet">
<metadata>
Created by potrace 1.11, written by Peter Selinger 2001-2013
</metadata>
<g transform="translate(0.000000,1024.000000) scale(0.100000,-0.100000)"
fill="#000000" stroke="none">
<path d="M0 5120 l0 -5120 5120 0 5120 0 0 5120 0 5120 -5120 0 -5120 0 0
-5120z m5230 5018 c416 -168 854 -417 1225 -697 153 -116 363 -291 364 -303 1
-11 -152 -190 -261 -303 l-105 -109 -84 73 c-261 227 -611 460 -937 625 -159
80 -273 133 -257 118 6 -5 60 -51 120 -102 139 -118 460 -439 589 -590 119
-139 286 -354 286 -369 0 -25 -354 -281 -564 -408 -147 -88 -511 -273 -538
-273 -43 0 -363 161 -570 286 -426 258 -885 657 -1167 1013 l-31 39 99 85
c358 310 825 612 1246 807 160 73 394 169 415 170 8 0 85 -28 170 -62z m-1925
-1268 c106 -122 363 -375 485 -480 360 -308 817 -593 1233 -769 l97 -41 98 41
c316 134 695 354 987 573 267 199 584 499 794 750 l66 78 106 -110 c786 -816
1303 -1881 1458 -3002 40 -290 46 -389 46 -755 0 -366 -7 -472 -46 -755 -139
-1009 -564 -1959 -1230 -2755 -76 -90 -315 -346 -330 -353 -4 -2 -44 41 -89
95 -122 144 -425 442 -580 571 -319 265 -698 506 -1058 672 -206 95 -214 97
-259 81 -147 -53 -519 -245 -723 -374 -399 -252 -799 -598 -1099 -950 l-84
-99 -85 84 c-117 115 -313 345 -447 523 -597 796 -955 1712 -1062 2720 -14
131 -18 254 -18 535 0 381 6 476 51 788 160 1120 677 2173 1469 2990 l90 93
24 -28 c13 -15 61 -71 106 -123z m2019 -6519 c577 -285 1072 -673 1490 -1166
l68 -80 -59 -54 c-184 -169 -525 -417 -798 -581 -203 -121 -554 -296 -755
-376 l-145 -57 -63 22 c-326 113 -805 367 -1162 614 -173 120 -512 390 -534
426 -3 4 25 45 63 89 368 436 806 794 1311 1072 142 79 358 180 384 180 10 0
100 -40 200 -89z"/>
<path d="M3113 7982 c-548 -761 -851 -1598 -914 -2522 -14 -212 -6 -605 16
-810 78 -710 303 -1377 670 -1982 78 -130 210 -324 276 -409 l26 -33 104 94
c491 442 1091 804 1718 1040 l113 43 137 -53 c624 -241 1225 -607 1715 -1045
l78 -70 27 34 c66 85 198 279 274 406 389 643 611 1332 677 2100 14 156 14
595 0 755 -71 837 -335 1597 -793 2285 -69 103 -151 218 -178 249 -4 5 -49
-29 -101 -75 -105 -95 -281 -239 -348 -285 -25 -17 -97 -68 -160 -113 -232
-167 -561 -357 -831 -482 -174 -80 -470 -199 -496 -199 -26 0 -227 77 -398
152 -372 164 -730 373 -1061 621 -136 101 -385 307 -413 341 -8 9 -26 26 -41
36 l-27 19 -70 -97z m2079 -1370 c50 -29 58 -63 58 -246 l0 -166 209 0 c114 0
232 -5 262 -10 67 -13 121 -48 156 -102 24 -36 28 -51 28 -118 0 -68 -3 -82
-30 -125 -22 -36 -45 -57 -84 -77 l-53 -28 -244 0 -244 0 0 -135 0 -135 -130
0 -130 0 0 135 0 135 -244 0 -244 0 -53 28 c-39 20 -62 41 -84 77 -27 43 -30
57 -30 125 0 67 4 82 28 118 35 54 89 89 156 102 30 5 148 10 262 10 l209 0 0
164 c0 174 5 201 42 235 43 41 103 46 160 13z m593 -1279 c110 -59 156 -188
106 -298 -23 -51 -89 -111 -138 -124 -22 -6 -137 -11 -270 -11 l-233 0 0 -135
0 -135 -130 0 -130 0 0 135 0 135 -232 0 c-134 0 -249 5 -271 11 -21 6 -57 27
-79 47 -140 126 -85 347 97 393 17 4 302 7 635 6 599 -2 605 -2 645 -24z m-64
-753 c67 -13 121 -48 156 -102 24 -36 28 -51 28 -118 0 -68 -3 -82 -30 -125
-22 -36 -45 -57 -84 -77 l-53 -28 -244 0 -244 0 0 -210 0 -210 -130 0 -130 0
0 210 0 210 -244 0 -244 0 -53 28 c-39 20 -62 41 -84 77 -27 43 -30 57 -30
125 0 67 4 82 28 118 34 52 90 90 148 101 64 13 1144 13 1210 1z"/>
<path d="M6113 1688 c-233 -311 -527 -623 -833 -887 -47 -41 -89 -78 -95 -83
-30 -28 319 144 465 229 270 157 622 410 787 565 l31 30 -56 53 c-88 81 -212
185 -221 185 -5 0 -40 -42 -78 -92z"/>
</g>
</svg>
